<svg id="Layer_1" data-name="Layer 1" xmlns="http://www.w3.org/2000/svg" width="24" height="24" viewBox="0 0 24 24"><defs><style>.cls-1,.cls-3{fill:none;stroke:#ff3366;}.cls-1{stroke-miterlimit:10;stroke-width:1.7px;}.cls-2{fill:#ff3366;}.cls-3{stroke-linecap:round;stroke-linejoin:round;stroke-width:1.7px;}</style></defs><path class="cls-1" d="M13.7327,9.3891V8.38a2.5226,2.5226,0,1,0-5.0452,0v1.009"/><circle class="cls-2" cx="11.1724" cy="13.733" r="1.1442"/><path class="cls-3" d="M19.0241,18.7814a10.2595,10.2595,0,1,1,2.49-7.4967"/><polyline class="cls-3" points="19.522 9.67 21.514 11.285 22.934 9.001"/><path class="cls-2" d="M14.6549,11.0235v5.419H7.84v-5.419h6.8145m.4091-1.7H7.4312a1.2907,1.2907,0,0,0-1.2907,1.2908v6.2374a1.2907,1.2907,0,0,0,1.2907,1.2908H15.064a1.2908,1.2908,0,0,0,1.2908-1.2908V10.6143A1.2908,1.2908,0,0,0,15.064,9.3235Z"/></svg>